<svg viewBox="0 0 512 512" xmlns="http://www.w3.org/2000/svg"><path d="M268.07 121.897V74.75a19.11 19.11 0 0 0-19.089-19.088H93.426A19.11 19.11 0 0 0 74.339 74.75v47.147a19.11 19.11 0 0 0 19.087 19.087H248.98a19.11 19.11 0 0 0 19.088-19.088Zm-181.73 0V74.75a7.095 7.095 0 0 1 7.086-7.088h155.555a7.096 7.096 0 0 1 7.088 7.088v47.147a7.096 7.096 0 0 1-7.088 7.087H93.426a7.095 7.095 0 0 1-7.087-7.088ZM400.419 152.101H254.16a18.757 18.757 0 0 0-18.736 18.736V214.8a18.758 18.758 0 0 0 18.736 18.736h5.84v16.04a9.612 9.612 0 0 0 16.534 6.68l16.649-17.243a18.023 18.023 0 0 1 12.898-5.476h94.337a18.758 18.758 0 0 0 18.736-18.737v-43.963A18.757 18.757 0 0 0 400.42 152.1Zm6.736 62.699a6.744 6.744 0 0 1-6.736 6.736h-94.337a30.085 30.085 0 0 0-21.531 9.141L272 243.675v-12.198a9.953 9.953 0 0 0-9.943-9.94h-7.897a6.744 6.744 0 0 1-6.736-6.737v-43.963a6.743 6.743 0 0 1 6.736-6.736h146.258a6.743 6.743 0 0 1 6.736 6.736Z" fill="#e1e1e1" class="fill-000000"></path><path d="M123.469 73.706h-5.874a10.512 10.512 0 0 0-10.5 10.5v5.337h9v-5.337a1.502 1.502 0 0 1 1.5-1.5h5.874a1.502 1.502 0 0 1 1.5 1.5v4.773a1.496 1.496 0 0 1-.807 1.33l-5.528 2.878a13.1 13.1 0 0 0-7.07 11.656h9a4.13 4.13 0 0 1 2.227-3.673l5.529-2.88a10.468 10.468 0 0 0 5.649-9.312v-4.773a10.512 10.512 0 0 0-10.5-10.5ZM111.843 112.219h9v7.887h-9zM147.624 84.506h87.558v9h-87.558zM148.131 103.177h51.433v9h-51.433zM268.167 178.806h76.1v9h-76.1zM268.416 197.726h117.786v9H268.416zM358.366 178.806h27.836v9h-27.836z" fill="#e1e1e1" class="fill-000000"></path><path d="M280.07 74.75v7.07h81.5a9.997 9.997 0 0 1 10 10v48.28h15.24V64.27a32.7 32.7 0 0 0-32.7-32.7H157.89a32.632 32.632 0 0 0-25.385 12.092h116.477a31.123 31.123 0 0 1 31.087 31.088ZM371.569 428.76a10.004 10.004 0 0 1-10 10h-19.6v-15.498a12.68 12.68 0 0 0-12.67-12.67h-1.76v-42.22a20.896 20.896 0 0 0 14.43-19.83v-.58a38.845 38.845 0 0 0-2.4-13.45l-16.63-45.23a20.01 20.01 0 0 0-18.72-13.06h-95.15a20.031 20.031 0 0 0-18.72 13.06l-16.63 45.23a38.837 38.837 0 0 0-2.39 13.45v.58a20.897 20.897 0 0 0 14.43 19.83v42.22h-1.77a12.678 12.678 0 0 0-12.66 12.67v15.498h-20.9a10.004 10.004 0 0 1-10-10V152.984h-15.24V456.83a32.7 32.7 0 0 0 32.7 32.7h196.22a32.7 32.7 0 0 0 32.7-32.7V245.54h-15.24Zm-69.26-140.539h1.91a7.98 7.98 0 0 1 7.46 5.2l12.69 34.51h-22.06Zm0 51.71h26.41a26.936 26.936 0 0 1 1.25 8.03v.58a8.86 8.86 0 0 1-8.85 8.85h-9.96a8.86 8.86 0 0 1-8.85-8.85Zm-39.66-51.71h27.66v39.71h-27.66Zm0 60.32v-8.61h27.66v8.61a8.86 8.86 0 0 1-8.85 8.85h-9.96a8.855 8.855 0 0 1-8.85-8.83Zm-39.66-60.32h27.66v39.71h-27.66Zm0 51.71h27.66v8.63a8.862 8.862 0 0 1-8.85 8.83h-9.96a8.86 8.86 0 0 1-8.85-8.85Zm8.85 29.46h9.96a20.812 20.812 0 0 0 14.85-6.24 20.794 20.794 0 0 0 14.85 6.24h9.96a20.812 20.812 0 0 0 14.85-6.24 20.795 20.795 0 0 0 14.85 6.24h4.38v41.2h-38.07v-19.84a11.69 11.69 0 0 0-11.67-11.67h-18.3a11.683 11.683 0 0 0-11.67 11.67v19.84h-38.07v-41.2h4.38a20.813 20.813 0 0 0 14.85-6.24 20.794 20.794 0 0 0 14.85 6.24Zm-30.22-75.97a7.967 7.967 0 0 1 7.45-5.2h1.92v39.71h-22.06Zm-18.29 55.12v-.58a26.63 26.63 0 0 1 1.25-8.03h26.41v8.61a8.86 8.86 0 0 1-8.85 8.85h-9.97a8.858 8.858 0 0 1-8.84-8.85Zm0 74.72a.668.668 0 0 1 .66-.67h145.31a.67.67 0 0 1 .67.67v15.499h-146.64Zm95.55 46.059h-45.76v-12h45.76Z" fill="#e1e1e1" class="fill-000000"></path></svg>